<?xml version="1.0" standalone="no"?><!DOCTYPE svg PUBLIC "-//W3C//DTD SVG 1.1//EN" "http://www.w3.org/Graphics/SVG/1.1/DTD/svg11.dtd"><svg t="1691331044364" class="icon" viewBox="0 0 1444 1024" version="1.1" xmlns="http://www.w3.org/2000/svg" p-id="8261" xmlns:xlink="http://www.w3.org/1999/xlink" width="45.125" height="32"><path d="M1381.376 211.456h4.608c1.024 0 1.536 0 2.048 0.512 1.024 0 2.048 0.512 2.56 0.512 0.512 0 1.536 0.512 2.048 0.512h0.512l2.048 0.512h0.512c0.512 0.512 1.536 0.512 2.048 1.024L1010.176 4.096c-0.512 0-0.512-0.512-1.024-0.512l-1.024-0.512h-0.512c-0.512 0-1.536-0.512-2.048-0.512h-0.512c-0.512 0-1.536-0.512-2.048-0.512h-0.512c-0.512 0-1.536-0.512-2.048-0.512h-0.512c-1.024 0-1.536-0.512-2.048-0.512h-5.632c-1.024 0-1.536 0-2.56 0.512L38.4 134.656c-1.024 0-1.536 0.512-2.56 0.512h-0.512c-0.512 0-1.536 0.512-2.048 0.512l-2.56 1.024s-0.512 0-0.512 0.512c-0.512 0-1.536 0.512-2.048 1.024-1.536 0-2.56 0.512-3.584 1.024h-0.512c-1.024 0.512-1.536 1.024-2.56 1.536h-0.512c-0.512 0.512-1.024 1.024-2.048 1.536-0.512 0.512-1.536 1.024-2.048 1.536h-0.512l-1.536 1.536-0.512 0.512c-0.512 0.512-1.024 1.024-1.536 2.048l-1.536 1.536-0.512 0.512-1.024 1.536s0 0.512-0.512 0.512c-0.512 0.512-1.024 1.536-1.536 2.048v0.512c-0.512 0.512-1.024 1.024-1.024 2.048l-0.512 0.512c-0.512 1.024-1.024 2.048-1.536 2.56v0.512l-1.024 2.56v1.024c0 0.512 0 0.512-0.512 1.024v1.024c0 0.512 0 0.512-0.512 1.024v1.024c0 0.512 0 0.512-0.512 1.024v10.24L0 767.488c0 14.336 7.168 26.112 17.408 31.744l388.608 211.456c-10.24-5.632-17.408-17.408-17.408-31.744l1.024-587.264v-3.072-1.024-1.024-1.024-1.024-1.024-1.024-1.024c0-0.512 0-0.512 0.512-1.024v-1.024c0-0.512 0-0.512 0.512-1.024v-1.024c0-0.512 0-0.512 0.512-1.024l0.512-1.024 1.024-2.56v-0.512c0.512-1.024 1.024-2.048 1.536-2.56v-0.512c0.512-0.512 0.512-1.024 1.024-2.048 0 0 0-0.512 0.512-0.512l1.536-2.048 0.512-0.512 1.024-1.536 0.512-0.512c0.512-0.512 1.024-1.024 1.024-1.536 0 0 0-0.512 0.512-0.512 0.512-0.512 1.024-1.024 1.536-2.048l0.512-0.512 1.536-1.536s0.512 0 0.512-0.512c0.512-0.512 1.024-1.024 2.048-1.536l2.048-1.536 0.512-0.512c1.024-0.512 1.536-1.024 2.56-1.536l0.512-0.512c1.024-0.512 2.048-1.024 2.56-1.536h0.512c0.512 0 1.536-0.512 2.048-1.024h0.512l2.56-1.024h0.512c0.512 0 1.536-0.512 2.048-0.512h0.512c1.024 0 1.536-0.512 2.56-0.512l951.296-134.144c1.536 0.512 2.56 0.512 3.584 0.512-0.512 0 0 0 0 0z" fill="#00A4FF" p-id="8262"></path><path d="M51.2 228.864l100.864 55.808c16.384 9.216 30.208 30.208 30.208 46.592v476.672c0 16.896-13.312 22.528-30.208 13.312L51.2 765.952c-16.384-9.216-30.208-30.208-30.208-46.592V242.688c0-16.896 13.312-22.528 30.208-13.824z m182.784 97.792l100.864 55.808c16.384 9.216 30.208 30.208 30.208 46.592v476.672c0 16.384-13.312 22.528-30.208 13.312l-100.864-55.808c-16.384-9.216-30.208-30.208-30.208-46.592v-476.16c0.512-16.896 13.824-23.04 30.208-13.824z" fill="#074CE5" p-id="8263"></path><path d="M864.256 284.16l-0.512 211.456c0 11.264-8.704 21.504-18.944 23.04l-96.256 13.312c-10.24 1.536-18.432-6.656-18.432-17.408l0.512-211.456 133.632-18.944z" fill="#FDF17F" p-id="8264"></path><path d="M1378.304 211.968c20.48-3.072 37.376 12.8 37.376 35.328l-1.024 587.264c0 22.528-16.896 42.496-37.376 45.568L425.984 1013.76c-20.48 3.072-37.376-12.8-37.376-35.328l1.024-587.264c0-22.016 16.896-43.008 37.376-45.568l951.296-133.632z" fill="#DFE8F4" p-id="8265"></path><path d="M517.12 401.408l36.352-4.608c6.656-1.024 12.288 4.096 12.288 10.752v498.176c0 6.656-5.632 12.8-12.288 13.312l-36.352 4.608c-5.632 1.024-11.264-3.072-11.776-8.704V414.72c0-6.656 5.632-12.8 11.776-13.312z m297.472-31.232l36.352-4.608c6.656-1.024 12.288 4.096 12.288 10.752v498.176c0 6.656-5.632 12.8-12.288 13.312l-36.352 4.608c-5.632 1.024-11.264-3.072-11.776-8.704V383.488c0-6.656 5.12-12.8 11.776-13.312zM665.6 386.048l36.352-4.608c6.656-1.024 12.288 4.096 12.288 10.752v498.176c0 6.656-5.632 12.8-12.288 13.312l-36.352 4.608c-5.632 1.024-11.264-3.072-11.776-8.704V399.872c-0.512-6.656 5.12-12.8 11.776-13.824z m293.376-34.304l36.352-4.608c6.656-1.024 12.288 4.096 12.288 10.752v498.176c0 6.656-5.632 12.8-12.288 13.312l-36.352 4.608c-5.632 1.024-11.264-3.072-11.776-8.704V365.056c-0.512-6.656 5.12-12.8 11.776-13.312z m145.408-20.992l36.352-4.608c6.656-1.024 12.288 4.096 12.288 10.752v498.176c0 6.656-5.632 12.8-12.288 13.312l-36.352 4.608c-5.632 1.024-11.264-3.072-11.776-8.704V344.064c-0.512-6.656 5.12-12.8 11.776-13.312z m148.48-20.48l36.352-4.608c6.656-1.024 12.288 4.096 12.288 10.752v498.176c0 6.656-5.632 12.8-12.288 13.312l-36.352 4.608c-5.632 1.024-11.264-3.072-11.776-8.704V323.584c-0.512-6.144 5.12-12.288 11.776-13.312z" fill="#FFFFFF" p-id="8266"></path><path d="M546.304 397.824l7.168-1.024c6.656-1.024 12.288 4.096 12.288 10.752v498.176c0 6.656-5.632 12.8-12.288 13.312l-7.168 1.024v-522.24z m297.472-31.232l7.168-1.024c6.656-1.024 12.288 4.096 12.288 10.752v498.176c0 6.656-5.632 12.8-12.288 13.312l-7.168 1.024v-522.24z m-149.504 15.872l7.168-1.024c6.656-1.024 12.288 4.096 12.288 10.752v498.176c0 6.656-5.632 12.8-12.288 13.312l-7.168 1.024v-522.24zM988.16 348.16l7.168-1.024c6.656-1.024 12.288 4.096 12.288 10.752v498.176c0 6.656-5.632 12.8-12.288 13.312l-7.168 1.024V348.16z m144.896-20.992l7.168-1.024c6.656-1.024 12.288 4.096 12.288 10.752v498.176c0 6.656-5.632 12.8-12.288 13.312l-7.168 1.024v-522.24z m148.992-20.48l7.168-1.024c6.656-1.024 12.288 4.096 12.288 10.752v498.176c0 6.656-5.632 12.8-12.288 13.312l-7.168 1.024v-522.24z" fill="#CCD8E5" p-id="8267"></path></svg>